<?xml version="1.0" encoding="UTF-8"?>
<svg id="Layer_2" data-name="Layer 2" xmlns="http://www.w3.org/2000/svg" viewBox="0 0 56.01 47.83">
  <defs>
    <style>
      .cls-1 {
        fill: #E1DCD8;
      }
    </style>
  </defs>
  <g id="Layer_3" data-name="Layer 3">
    <g>
      <path class="cls-1" d="M38.21,19c0-6.77-3.66-13.07-9.56-16.46-2.88-1.66-6.18-2.54-9.54-2.54s-6.67,.88-9.56,2.55C3.66,5.93,0,12.24,0,19.01c0,3.34,.88,6.63,2.56,9.51,1.67,2.89,4.09,5.29,6.99,6.96,2.89,1.67,6.19,2.55,9.56,2.55h.67v-14.06c.65-.09,1.28-.3,1.84-.62,.76-.44,1.4-1.07,1.84-1.83,.33-.56,.54-1.18,.63-1.83h14.14v-.66h0Zm-4.07-9.42l-4.94,2.84c-.91-1.39-2.1-2.57-3.49-3.47l2.86-4.93c2.29,1.43,4.18,3.34,5.58,5.57h0ZM1.34,18.34c.1-2.68,.82-5.27,2.05-7.59l4.94,2.84c-.75,1.47-1.19,3.09-1.28,4.75H1.34Zm8.15-4.08l2.62,1.5c-.38,.81-.62,1.69-.69,2.58h-3.03c.09-1.43,.47-2.81,1.1-4.08Zm11.52,.13c-.4-.16-.82-.27-1.24-.32v-1.37c.66,.07,1.32,.24,1.93,.51l-.68,1.18h0Zm-2.58-.32c-.1,.01-.21,.03-.31,.05-.32,.06-.63,.15-.93,.27l-.68-1.18c.61-.27,1.26-.44,1.92-.51v1.36h0Zm4.65,1.89c-.16-.21-.35-.41-.54-.59-.12-.11-.24-.22-.36-.31l.68-1.17c.54,.39,1.02,.86,1.41,1.4l-1.18,.68h0Zm-.71-3.91c-.82-.38-1.7-.61-2.6-.69v-3.01c1.43,.09,2.83,.46,4.11,1.09l-1.51,2.61h0Zm-3.93-.69c-.9,.08-1.78,.31-2.6,.69l-1.51-2.61c1.28-.63,2.68-1,4.11-1.09v3.01h0Zm-2.4,3.69c-.34,.26-.65,.56-.91,.9l-1.18-.68c.39-.54,.87-1.01,1.41-1.4l.68,1.17h0Zm-1.58,2.06c-.16,.4-.28,.81-.33,1.24h-1.36c.07-.66,.24-1.31,.51-1.91l1.18,.68h0Zm-.33,2.56c.06,.43,.17,.84,.33,1.24l-1.18,.68c-.27-.61-.45-1.25-.52-1.92h1.36Zm1,2.39c.26,.34,.57,.65,.91,.9l-.68,1.17c-.54-.39-1.02-.86-1.41-1.4l1.18-.68h0Zm2.06,1.58c.09,.04,.19,.07,.28,.1,.14,.05,.28,.09,.42,.12,.03,0,.07,.01,.1,.03,.14,.03,.27,.05,.41,.07h.02v1.35c-.67-.07-1.32-.24-1.93-.51l.68-1.18h.01Zm6.89-5.28h0c-.02-.15-.05-.29-.08-.42,0-.04-.02-.07-.03-.11-.03-.14-.07-.27-.12-.41,0,0,0-.01,0-.02-.03-.09-.07-.18-.1-.27l1.19-.68c.28,.61,.45,1.25,.52,1.92h-1.37Zm1.34-3.73c-.52-.73-1.16-1.37-1.9-1.89l1.51-2.61c1.19,.79,2.22,1.81,3.01,2.99l-2.62,1.5h0Zm-.87-6.31c-1.48-.75-3.11-1.18-4.78-1.27V1.35c2.67,.1,5.29,.8,7.64,2.03l-2.86,4.92Zm-6.12-1.27c-1.66,.09-3.3,.52-4.78,1.27l-2.86-4.92c2.35-1.24,4.96-1.94,7.64-2.03V7.03Zm-3.75,5.7c-.73,.52-1.38,1.15-1.9,1.89l-2.62-1.5c.79-1.18,1.82-2.21,3.01-2.99l1.51,2.61h0Zm-3.26,6.94c.08,.9,.31,1.77,.69,2.58l-2.62,1.5c-.64-1.27-1.01-2.66-1.1-4.09h3.03Zm1.36,3.74c.52,.74,1.16,1.37,1.9,1.89l-1.51,2.61c-1.19-.79-2.22-1.81-3.01-2.99l2.62-1.5h0Zm3.05,2.55c.81,.38,1.69,.62,2.6,.69v3.01c-1.44-.09-2.83-.46-4.11-1.09l1.51-2.61Zm10.95-7.62c-.08-.89-.31-1.77-.69-2.58l2.62-1.5c.64,1.27,1.01,2.66,1.1,4.09h-3.03ZM9.65,4.04l2.86,4.93c-1.39,.91-2.58,2.09-3.5,3.47l-4.94-2.84c1.4-2.22,3.3-4.14,5.58-5.56ZM1.35,19.68H7.07c.09,1.66,.52,3.28,1.28,4.75l-4.95,2.85c-1.25-2.34-1.95-4.93-2.04-7.6Zm2.71,8.75l4.95-2.85c.91,1.38,2.1,2.57,3.5,3.48l-2.86,4.92c-2.25-1.41-4.17-3.32-5.59-5.56h0Zm6.74,6.24l2.86-4.93c1.48,.75,3.11,1.18,4.78,1.27v5.69c-2.67-.1-5.29-.8-7.64-2.03h0Zm11.5-13.8c-.32,.56-.79,1.03-1.35,1.35-1.09,.63-2.54,.64-3.65,.01-.01,0-.02-.01-.03-.02-.35-.2-.66-.45-.92-.75-.16-.18-.3-.38-.43-.59-.02-.03-.04-.07-.06-.1-.17-.31-.29-.66-.37-1.01-.05-.24-.07-.48-.07-.72,0-.65,.17-1.28,.49-1.83,.02-.03,.05-.07,.07-.1,.24-.37,.54-.71,.88-.97,.13-.1,.26-.18,.4-.26,1.11-.64,2.56-.64,3.67,0,0,0,0,0,.01,0,.14,.08,.28,.17,.4,.27,.39,.29,.71,.66,.95,1.07,.32,.56,.49,1.18,.49,1.83s-.17,1.28-.49,1.83h0Zm8.85-2.5c-.09-1.66-.53-3.28-1.28-4.75l4.94-2.84c1.23,2.32,1.95,4.91,2.05,7.59h-5.72Z"/>
      <path class="cls-1" d="M23.42,43.38h1.3v.23h-1.57v-.23l1.26-1.98h-1.23v-.23h1.5v.23l-1.26,1.98h0Zm2.52-1.9l.49,1.3h-.98l.49-1.3Zm1.06,2.13l-.94-2.43h-.25l-.94,2.43h.26l.23-.6h1.16l.23,.6h.25Zm.58-.23v-1.98h.7c.27,0,.49,.09,.66,.28s.26,.43,.26,.7-.09,.51-.26,.7c-.17,.19-.39,.28-.66,.28h-.7Zm-.24-2.19v2.43h.94c.33,0,.6-.12,.83-.35,.22-.24,.33-.52,.33-.86s-.1-.63-.33-.86c-.22-.24-.49-.35-.83-.35h-.94Zm2.48,1.6c0,.26,.09,.48,.25,.63s.39,.24,.66,.24,.49-.08,.66-.24,.25-.37,.25-.63v-1.6h-.24v1.6c0,.39-.25,.63-.67,.63s-.66-.24-.66-.63v-1.6h-.24v1.6h0Zm3.14-1.85l.37-.45h-.26l-.25,.3-.24-.3h-.26l.37,.45h.28Zm.62,.47v-.23h-1.5v.23h1.23l-1.26,1.98v.23h1.57v-.23h-1.3l1.26-1.98Zm.68,1.98v-.9h.82c.12,0,.22,.05,.31,.13,.09,.09,.13,.2,.13,.31s-.04,.24-.13,.32c-.09,.09-.18,.13-.31,.13h-.82Zm.74-1.98c.12,0,.21,.05,.29,.12,.08,.09,.12,.18,.12,.3s-.05,.22-.12,.3c-.08,.08-.17,.12-.29,.12h-.74v-.85h.74Zm.76,1.52c0-.26-.16-.48-.39-.58,.19-.12,.29-.29,.29-.52,0-.18-.06-.33-.19-.46-.13-.13-.28-.2-.47-.2h-.98v2.43h1.06c.19,0,.35-.07,.48-.2,.13-.13,.2-.29,.2-.48m.43,.67h.25v-2.43h-.25v2.43Zm2.39-.45l-1.36-1.98h-.21v2.43h.24v-1.98l1.36,1.98h.21v-2.43h-.24v1.98Zm1.64-1.68l.49,1.3h-.98l.49-1.3Zm1.06,2.13l-.94-2.43h-.25l-.94,2.43h.26l.23-.6h1.16l.23,.6h.24Zm-16.05,1.74l-.82,1.35-.81-1.35h-.3v2.43h.24v-2.06l.86,1.43h.03l.85-1.43v2.06h.25v-2.43h-.3Zm.88,2.43h.25v-2.43h-.25v2.43Zm1.94-.2c-.29,0-.53-.1-.73-.29-.2-.2-.29-.44-.29-.73s.1-.52,.29-.72c.2-.2,.43-.3,.73-.3s.53,.1,.73,.3,.29,.44,.29,.72-.1,.53-.29,.73-.44,.29-.73,.29Zm0,.24c.35,0,.65-.12,.9-.37s.37-.54,.37-.9-.12-.65-.37-.89c-.24-.25-.54-.37-.9-.37s-.66,.12-.9,.37c-.25,.24-.37,.54-.37,.89s.12,.65,.37,.9c.24,.24,.54,.37,.9,.37Zm1.95-.27v-1.97h.69c.27,0,.49,.09,.66,.28,.17,.19,.26,.43,.26,.7s-.09,.51-.26,.7-.39,.28-.66,.28h-.69Zm-.25-2.19v2.43h.94c.33,0,.61-.12,.83-.35,.22-.24,.33-.52,.33-.86s-.1-.63-.33-.86c-.22-.24-.49-.35-.83-.35h-.94Zm3.51,.23c.14,0,.25,.05,.35,.14,.1,.1,.14,.22,.14,.35s-.05,.26-.14,.35c-.1,.1-.21,.14-.35,.14h-.73v-1h.73Zm.8,2.21l-.6-1c.16-.05,.28-.13,.37-.26,.1-.13,.15-.27,.15-.44,0-.2-.07-.37-.22-.52-.14-.14-.31-.22-.52-.22h-.98v2.43h.24v-.97h.69l.57,.97h.28Zm1.19-2.13l.49,1.3h-.98l.49-1.3Zm1.06,2.13l-.94-2.43h-.25l-.94,2.43h.26l.23-.6h1.16l.23,.6h.24Zm1.36-1.16v.23h.97c-.03,.21-.12,.39-.28,.53-.16,.14-.38,.2-.66,.2-.3,0-.56-.1-.75-.29-.2-.2-.29-.44-.29-.73s.1-.53,.29-.73c.19-.2,.45-.29,.75-.29,.36,0,.69,.19,.84,.48l.22-.12c-.1-.18-.25-.33-.44-.43-.19-.11-.39-.16-.62-.16-.37,0-.68,.12-.92,.37-.24,.24-.36,.54-.36,.9s.12,.65,.36,.9c.24,.24,.55,.37,.92,.37s.66-.1,.87-.31c.22-.21,.32-.46,.32-.77v-.12h-1.21Zm2.39-.98l.49,1.3h-.98l.49-1.3Zm1.06,2.13l-.94-2.43h-.26l-.94,2.43h.26l.23-.6h1.16l.22,.6h.26Zm1.72-1.25l1.17-1.18h-.32l-1.11,1.11v-1.11h-.24v2.43h.24v-1.18l1.15,1.18h.32l-1.21-1.25h0Zm2.45,1.05c-.29,0-.53-.1-.73-.29-.2-.2-.29-.44-.29-.73s.1-.52,.29-.72c.2-.2,.43-.3,.73-.3s.53,.1,.73,.3,.29,.44,.29,.72-.1,.53-.29,.73-.43,.29-.73,.29Zm0,.24c.35,0,.65-.12,.9-.37,.24-.25,.37-.54,.37-.9s-.12-.65-.37-.89c-.24-.25-.54-.37-.9-.37s-.66,.12-.9,.37c-.24,.24-.37,.54-.37,.89s.12,.65,.37,.9c.25,.24,.54,.37,.9,.37Zm1.46-.62c.12,.37,.46,.6,.9,.6,.25,0,.45-.06,.6-.18,.15-.12,.23-.29,.23-.5,0-.12-.05-.24-.09-.31-.05-.08-.16-.16-.24-.2-.03-.03-.09-.05-.16-.08-.07-.03-.12-.05-.16-.06l-.18-.07c-.2-.06-.33-.12-.41-.18-.09-.06-.12-.15-.12-.27,0-.26,.2-.42,.51-.42s.49,.14,.6,.41l.21-.11c-.14-.31-.43-.52-.81-.52-.21,0-.39,.06-.54,.18-.14,.12-.22,.28-.22,.48s.09,.37,.28,.48c.08,.05,.25,.12,.5,.2,.21,.07,.37,.14,.46,.2,.1,.07,.14,.16,.14,.29,0,.27-.22,.44-.58,.44s-.62-.18-.7-.48l-.21,.12m1.85-1.9v.23h.75v2.2h.24v-2.2h.75v-.23h-1.74Zm2.11,2.43h.25v-2.43h-.25v2.43Zm2.06-3.13h.28l-.33,.45h-.22l.28-.45Zm-.1,3.16c.45,0,.86-.24,1.06-.6l-.22-.12c-.15,.29-.48,.48-.84,.48-.31,0-.56-.1-.75-.29-.19-.2-.29-.44-.29-.73s.1-.53,.29-.73c.19-.2,.45-.29,.75-.29,.36,0,.69,.19,.84,.48l.22-.12c-.2-.37-.61-.6-1.06-.6-.37,0-.68,.12-.92,.37-.24,.24-.36,.54-.36,.9s.12,.65,.36,.9c.24,.24,.54,.37,.92,.37m2.26-2.18l.49,1.3h-.98l.49-1.3Zm1.06,2.13l-.94-2.43h-.25l-.94,2.43h.26l.23-.6h1.16l.23,.6h.25Z"/>
      <path class="cls-1" d="M27.44,26.56c0-.88-.62-1.49-1.47-1.49s-1.46,.6-1.46,1.49,.62,1.49,1.46,1.49,1.47-.6,1.47-1.49Zm1.36-.01c0,1.57-1.17,2.78-2.58,2.78-.77,0-1.34-.28-1.71-.77v2.73h-1.36v-7.37h1.36v.62c.38-.48,.94-.77,1.71-.77,1.42,0,2.58,1.21,2.58,2.78m5.22-.01c0-.88-.62-1.49-1.47-1.49s-1.46,.6-1.46,1.49,.62,1.49,1.46,1.49,1.47-.6,1.47-1.49Zm1.36-2.63v5.26h-1.36v-.62c-.38,.47-.95,.77-1.72,.77-1.41,0-2.57-1.21-2.57-2.78s1.17-2.78,2.57-2.78c.77,0,1.34,.29,1.72,.77v-.62h1.36Zm1.47-2.41h1.36v7.68h-1.36v-7.68Zm6.87,5.05c0-.88-.62-1.49-1.47-1.49s-1.46,.6-1.46,1.49,.62,1.49,1.46,1.49,1.47-.6,1.47-1.49Zm1.36-2.63v5.26h-1.36v-.62c-.38,.47-.95,.77-1.72,.77-1.41,0-2.57-1.21-2.57-2.78s1.17-2.78,2.57-2.78c.77,0,1.34,.29,1.72,.77v-.62h1.36Zm3.3,1.32v2.19c0,.57,.41,.58,1.19,.54v1.23c-1.91,.21-2.56-.35-2.56-1.77v-2.19h-.92v-1.31h.92v-1.07l1.36-.41v1.47h1.19v1.31h-1.19Zm6.25,1.33c0-.88-.62-1.49-1.47-1.49s-1.46,.6-1.46,1.49,.62,1.49,1.46,1.49,1.47-.6,1.47-1.49Zm1.36-2.63v5.26h-1.36v-.62c-.38,.47-.95,.77-1.72,.77-1.41,0-2.57-1.21-2.57-2.78s1.17-2.78,2.57-2.78c.77,0,1.34,.29,1.72,.77v-.62h1.36Zm-27.92,10.9v3.29h-1.37v-3.12c0-.73-.43-1.11-1.05-1.11-.67,0-1.17,.4-1.17,1.33v2.9h-1.37v-5.37h1.37v.6c.31-.48,.87-.75,1.58-.75,1.12,0,2.01,.79,2.01,2.22Zm5.43,.62c0-.9-.62-1.51-1.47-1.51s-1.46,.61-1.46,1.51,.62,1.51,1.46,1.51,1.47-.61,1.47-1.51Zm1.37-2.68v5.37h-1.37v-.63c-.38,.48-.96,.79-1.73,.79-1.41,0-2.58-1.24-2.58-2.83s1.17-2.83,2.58-2.83c.77,0,1.34,.3,1.73,.79v-.63h1.37Zm6.34,0v5.37h-1.36v-.6c-.31,.48-.87,.75-1.58,.75-1.12,0-2-.79-2-2.22v-3.29h1.36v3.12c0,.73,.43,1.11,1.05,1.11,.67,0,1.17-.4,1.17-1.33v-2.9h1.36Zm4.78,5.37l-1.93-2.43v2.43h-1.37v-7.51h1.37v4.51l1.82-2.36h1.63l-2.13,2.65,2.2,2.72h-1.59Zm5.96-3.19c-.17-.77-.74-1.08-1.32-1.08-.73,0-1.23,.39-1.39,1.08h2.71Zm-1.19,2.07c.53,0,.95-.22,1.19-.54l1.1,.65c-.5,.73-1.29,1.15-2.31,1.15-1.78,0-2.9-1.24-2.9-2.83s1.13-2.83,2.8-2.83c1.57,0,2.68,1.26,2.68,2.83,0,.2-.02,.39-.05,.57h-4c.19,.71,.77,1.01,1.49,1.01"/>
    </g>
  </g>
</svg>